<svg width="318" height="318" viewBox="0 0 318 318" fill="none" xmlns="http://www.w3.org/2000/svg">
  <path d="M274.1 35.5L174.6 109.4L193 65.8L274.1 35.5Z" fill="#E2761B" stroke="#E2761B" stroke-width="0.1" stroke-linecap="round" stroke-linejoin="round"/>
  <path d="M44.4 35.5L143.1 110.1L125.6 65.8L44.4 35.5Z" fill="#E4761B" stroke="#E4761B" stroke-width="0.1" stroke-linecap="round" stroke-linejoin="round"/>
  <path d="M238.3 206.8L211.8 247.4L268.5 263L284.8 207.7L238.3 206.8Z" fill="#E4761B" stroke="#E4761B" stroke-width="0.1" stroke-linecap="round" stroke-linejoin="round"/>
  <path d="M33.9 207.7L50.1 263L106.8 247.4L80.3 206.8L33.9 207.7Z" fill="#E4761B" stroke="#E4761B" stroke-width="0.1" stroke-linecap="round" stroke-linejoin="round"/>
  <path d="M103.6 152.5L87.8 179.8L144 182.7L142.1 121.4L103.6 152.5Z" fill="#E4761B" stroke="#E4761B" stroke-width="0.1" stroke-linecap="round" stroke-linejoin="round"/>
  <path d="M214.9 152.5L175.9 120.7L174.6 182.7L230.8 179.8L214.9 152.5Z" fill="#E4761B" stroke="#E4761B" stroke-width="0.1" stroke-linecap="round" stroke-linejoin="round"/>
  <path d="M106.8 247.4L140.6 230.9L111.4 208.1L106.8 247.4Z" fill="#E4761B" stroke="#E4761B" stroke-width="0.1" stroke-linecap="round" stroke-linejoin="round"/>
  <path d="M177.9 230.9L211.8 247.4L207.1 208.1L177.9 230.9Z" fill="#E4761B" stroke="#E4761B" stroke-width="0.1" stroke-linecap="round" stroke-linejoin="round"/>
  <path d="M211.8 247.4L177.9 230.9L180.6 253L180.3 262.3L211.8 247.4Z" fill="#D7C1B3" stroke="#D7C1B3" stroke-width="0.1" stroke-linecap="round" stroke-linejoin="round"/>
  <path d="M106.8 247.4L138.3 262.3L138.1 253L140.6 230.9L106.8 247.4Z" fill="#D7C1B3" stroke="#D7C1B3" stroke-width="0.1" stroke-linecap="round" stroke-linejoin="round"/>
  <path d="M138.8 193.5L110.6 185.2L130.5 176.1L138.8 193.5Z" fill="#233447" stroke="#233447" stroke-width="0.1" stroke-linecap="round" stroke-linejoin="round"/>
  <path d="M179.7 193.5L188 176.1L208 185.2L179.7 193.5Z" fill="#233447" stroke="#233447" stroke-width="0.1" stroke-linecap="round" stroke-linejoin="round"/>
  <path d="M106.8 247.4L111.6 206.8L80.3 207.7L106.8 247.4Z" fill="#CD6116" stroke="#CD6116" stroke-width="0.1" stroke-linecap="round" stroke-linejoin="round"/>
  <path d="M207 206.8L211.8 247.4L238.3 207.7L207 206.8Z" fill="#CD6116" stroke="#CD6116" stroke-width="0.1" stroke-linecap="round" stroke-linejoin="round"/>
  <path d="M230.8 179.8L174.6 182.7L179.8 193.5L188.1 176.1L208.1 185.2L230.8 179.8Z" fill="#CD6116" stroke="#CD6116" stroke-width="0.1" stroke-linecap="round" stroke-linejoin="round"/>
  <path d="M110.6 185.2L130.6 176.1L138.8 193.5L144.1 182.7L87.8 179.8L110.6 185.2Z" fill="#CD6116" stroke="#CD6116" stroke-width="0.1" stroke-linecap="round" stroke-linejoin="round"/>
  <path d="M87.8 179.8L111.4 208.1L110.6 185.2L87.8 179.8Z" fill="#E4751F" stroke="#E4751F" stroke-width="0.1" stroke-linecap="round" stroke-linejoin="round"/>
  <path d="M208.1 185.2L207.1 208.1L230.8 179.8L208.1 185.2Z" fill="#E4751F" stroke="#E4751F" stroke-width="0.1" stroke-linecap="round" stroke-linejoin="round"/>
  <path d="M144.1 182.7L138.8 193.5L145.4 227.6L146.9 182.7L144.1 182.7Z" fill="#E4751F" stroke="#E4751F" stroke-width="0.1" stroke-linecap="round" stroke-linejoin="round"/>
  <path d="M174.6 182.7L171.9 182.6L173.1 227.6L179.7 193.5L174.6 182.7Z" fill="#E4751F" stroke="#E4751F" stroke-width="0.1" stroke-linecap="round" stroke-linejoin="round"/>
  <path d="M179.7 193.5L173.1 227.6L177.9 230.9L207.1 208.1L208.1 185.2L179.7 193.5Z" fill="#F6851B" stroke="#F6851B" stroke-width="0.1" stroke-linecap="round" stroke-linejoin="round"/>
  <path d="M110.6 185.2L111.4 208.1L140.6 230.9L145.4 227.6L138.8 193.5L110.6 185.2Z" fill="#F6851B" stroke="#F6851B" stroke-width="0.1" stroke-linecap="round" stroke-linejoin="round"/>
  <path d="M180.3 262.3L180.6 253L178.1 250.8L140.4 250.8L138.1 253L138.3 262.3L106.8 247.4L119.6 257.8L140.1 271.5L178.4 271.5L199.1 257.8L211.8 247.4L180.3 262.3Z" fill="#C0AD9E" stroke="#C0AD9E" stroke-width="0.1" stroke-linecap="round" stroke-linejoin="round"/>
  <path d="M177.9 230.9L173.1 227.6L145.4 227.6L140.6 230.9L138.1 253L140.4 250.8L178.1 250.8L180.6 253L177.9 230.9Z" fill="#161616" stroke="#161616" stroke-width="0.1" stroke-linecap="round" stroke-linejoin="round"/>
  <path d="M278.3 114.2L286.8 73.4L274.1 35.5L177.9 106.9L214.9 152.5L267.2 170.4L278.8 153L273.8 149.7L281.8 143.1L275.6 138.8L283.6 133.2L278.3 114.2Z" fill="#763D16" stroke="#763D16" stroke-width="0.1" stroke-linecap="round" stroke-linejoin="round"/>
  <path d="M31.8 73.4L40.3 114.2L34.9 133.2L42.9 138.8L36.8 143.1L44.8 149.7L39.8 153L51.3 170.4L103.6 152.5L140.6 106.9L44.4 35.5L31.8 73.4Z" fill="#763D16" stroke="#763D16" stroke-width="0.1" stroke-linecap="round" stroke-linejoin="round"/>
  <path d="M267.2 170.4L214.9 152.5L230.8 179.8L207.1 208.1L238.3 207.7L284.8 207.7L267.2 170.4Z" fill="#F6851B" stroke="#F6851B" stroke-width="0.1" stroke-linecap="round" stroke-linejoin="round"/>
  <path d="M103.6 152.5L51.3 170.4L33.9 207.7L80.3 207.7L111.4 208.1L87.8 179.8L103.6 152.5Z" fill="#F6851B" stroke="#F6851B" stroke-width="0.1" stroke-linecap="round" stroke-linejoin="round"/>
  <path d="M174.6 182.7L177.9 106.9L193.1 65.8L125.6 65.8L140.6 106.9L144.1 182.7L145.3 182.8L145.4 227.6L173.1 227.6L173.3 182.8L174.6 182.7Z" fill="#F6851B" stroke="#F6851B" stroke-width="0.1" stroke-linecap="round" stroke-linejoin="round"/>
</svg>